<svg
  xmlns="http://www.w3.org/2000/svg"
  height="16px"
  viewBox="0 0 16 16"
  width="16px"
>
  <path
    fill="#7287fd"
    d=" M 0 8 L 0.05 6.26 L 0.21 5.10 L 0.46 4.11 L 0.82 3.24 L 1.28 2.49 L 1.83 1.83 L 2.49 1.28 L 3.24 0.82 L 4.11 0.46 L 5.10 0.21 L 6.26 0.05 L 8.00 0.00 L 8.00 0.00 L 9.74 0.05 L 10.90 0.21 L 11.89 0.46 L 12.76 0.82 L 13.51 1.28 L 14.17 1.83 L 14.72 2.49 L 15.18 3.24 L 15.54 4.11 L 15.79 5.10 L 15.95 6.26 L 16.00 8.00 L 16.00 8.00 L 15.95 9.74 L 15.79 10.90 L 15.54 11.89 L 15.18 12.76 L 14.72 13.51 L 14.17 14.17 L 13.51 14.72 L 12.76 15.18 L 11.89 15.54 L 10.90 15.79 L 9.74 15.95 L 8.00 16.00 L 8.00 16.00 L 6.26 15.95 L 5.10 15.79 L 4.11 15.54 L 3.24 15.18 L 2.49 14.72 L 1.83 14.17 L 1.28 13.51 L 0.82 12.76 L 0.46 11.89 L 0.21 10.90 L 0.05 9.74 L 0.00 8.00 "
  />
</svg>
